<mxfile host="Electron" agent="Mozilla/5.0 (Windows NT 10.0; Win64; x64) AppleWebKit/537.36 (KHTML, like Gecko) draw.io/26.1.1 Chrome/132.0.6834.210 Electron/34.3.3 Safari/537.36" version="26.1.1">
  <diagram name="第 1 页" id="_-1DHIk3z07MvExwzeI7">
    <mxGraphModel dx="2165" dy="820" grid="1" gridSize="10" guides="1" tooltips="1" connect="1" arrows="1" fold="1" page="1" pageScale="1" pageWidth="827" pageHeight="1169" math="0" shadow="0">
      <root>
        <mxCell id="0" />
        <mxCell id="1" parent="0" />
        <mxCell id="mHUgRa_8iIpHX4wLGQsA-1" value="" style="rounded=0;whiteSpace=wrap;html=1;" vertex="1" parent="1">
          <mxGeometry x="-120" y="110" width="910" height="550" as="geometry" />
        </mxCell>
        <mxCell id="mHUgRa_8iIpHX4wLGQsA-2" value="用户界面层" style="rounded=1;whiteSpace=wrap;html=1;" vertex="1" parent="1">
          <mxGeometry x="160" y="180" width="360" height="60" as="geometry" />
        </mxCell>
        <mxCell id="mHUgRa_8iIpHX4wLGQsA-3" value="业务逻辑层" style="rounded=1;whiteSpace=wrap;html=1;" vertex="1" parent="1">
          <mxGeometry x="160" y="355" width="360" height="60" as="geometry" />
        </mxCell>
        <mxCell id="mHUgRa_8iIpHX4wLGQsA-4" value="数据层" style="rounded=1;whiteSpace=wrap;html=1;" vertex="1" parent="1">
          <mxGeometry x="160" y="530" width="360" height="60" as="geometry" />
        </mxCell>
        <mxCell id="mHUgRa_8iIpHX4wLGQsA-6" value="" style="endArrow=classic;html=1;rounded=0;entryX=0.358;entryY=1.033;entryDx=0;entryDy=0;entryPerimeter=0;exitX=0.361;exitY=0.033;exitDx=0;exitDy=0;exitPerimeter=0;" edge="1" parent="1" source="mHUgRa_8iIpHX4wLGQsA-3" target="mHUgRa_8iIpHX4wLGQsA-2">
          <mxGeometry width="50" height="50" relative="1" as="geometry">
            <mxPoint x="290" y="330" as="sourcePoint" />
            <mxPoint x="330" y="290" as="targetPoint" />
          </mxGeometry>
        </mxCell>
        <mxCell id="mHUgRa_8iIpHX4wLGQsA-7" value="" style="endArrow=classic;html=1;rounded=0;entryX=0.358;entryY=1.033;entryDx=0;entryDy=0;entryPerimeter=0;exitX=0.361;exitY=0.033;exitDx=0;exitDy=0;exitPerimeter=0;" edge="1" parent="1">
          <mxGeometry width="50" height="50" relative="1" as="geometry">
            <mxPoint x="291" y="530" as="sourcePoint" />
            <mxPoint x="290" y="415" as="targetPoint" />
          </mxGeometry>
        </mxCell>
        <mxCell id="mHUgRa_8iIpHX4wLGQsA-8" value="" style="endArrow=classic;html=1;rounded=0;entryX=0.697;entryY=-0.033;entryDx=0;entryDy=0;entryPerimeter=0;" edge="1" parent="1" target="mHUgRa_8iIpHX4wLGQsA-4">
          <mxGeometry width="50" height="50" relative="1" as="geometry">
            <mxPoint x="411" y="420" as="sourcePoint" />
            <mxPoint x="410" y="240" as="targetPoint" />
          </mxGeometry>
        </mxCell>
        <mxCell id="mHUgRa_8iIpHX4wLGQsA-9" value="" style="endArrow=classic;html=1;rounded=0;entryX=0.697;entryY=-0.033;entryDx=0;entryDy=0;entryPerimeter=0;" edge="1" parent="1">
          <mxGeometry width="50" height="50" relative="1" as="geometry">
            <mxPoint x="413" y="247" as="sourcePoint" />
            <mxPoint x="413" y="355" as="targetPoint" />
          </mxGeometry>
        </mxCell>
        <mxCell id="mHUgRa_8iIpHX4wLGQsA-10" value="发起axio请求" style="whiteSpace=wrap;html=1;align=center;" vertex="1" parent="1">
          <mxGeometry x="414" y="280" width="106" height="40" as="geometry" />
        </mxCell>
        <mxCell id="mHUgRa_8iIpHX4wLGQsA-11" value="调用repository接口" style="whiteSpace=wrap;html=1;align=center;" vertex="1" parent="1">
          <mxGeometry x="170" y="280" width="120" height="40" as="geometry" />
        </mxCell>
        <mxCell id="mHUgRa_8iIpHX4wLGQsA-12" value="返回业务结果并修改数据层数据" style="whiteSpace=wrap;html=1;align=center;" vertex="1" parent="1">
          <mxGeometry x="414" y="450" width="110" height="40" as="geometry" />
        </mxCell>
        <mxCell id="mHUgRa_8iIpHX4wLGQsA-14" value="返回持久化数据" style="whiteSpace=wrap;html=1;align=center;" vertex="1" parent="1">
          <mxGeometry x="170" y="450" width="120" height="40" as="geometry" />
        </mxCell>
      </root>
    </mxGraphModel>
  </diagram>
</mxfile>
